# AST/ASF file generated using VICON BodyLanguage
# -----------------------------------------------
:version 1.10
:name VICON
:units
  mass 1.0
  length 0.45
  angle deg
:documentation
   .ast/.asf automatically generated from VICON data using
   VICON BodyBuilder and BodyLanguage model FoxedUp or BRILLIANT.MOD
:root
   order TX TY TZ RX RY RZ
   axis XYZ
   position 0 0 0  
   orientation 0 0 0 
:bonedata
  begin
     id 1 
     name lhipjoint
     direction 0.645893 -0.654526 0.392961 
     length 2.38111 
     axis 0 0 0  XYZ
  end
  begin
     id 2 
     name lfemur
     direction 0.34202 -0.939693 0  
     length 6.6822  
     axis 0 0 20  XYZ
    dof rx ry rz
    limits (-160.0 20.0)
           (-70.0 70.0)
           (-60.0 70.0)
  end
  begin
     id 3 
     name ltibia
     direction 0.34202 -0.939693 0   
     length 6.93904   
     axis 0 0 20   XYZ
    dof rx
    limits (-10.0 170.0)
  end
  begin
     id 4 
     name lfoot
     direction 0.0694967 -0.190941 0.979138   
     length 2.13616   
     axis -90 7.62852e-016 20   XYZ
    dof rx rz
    limits (-45.0 90.0)
           (-70.0 20.0)
  end
  begin
     id 5 
     name ltoes
     direction 1.535e-011 -4.2202e-011 1   
     length 1.07536   
     axis -90 7.62852e-016 20   XYZ
    dof rx
    limits (-90.0 20.0)
  end
  begin
     id 6 
     name rhipjoint
     direction -0.700219 -0.612087 0.367481   
     length 2.54621  
     axis 0 0 0  XYZ 
  end
  begin
     id 7 
     name rfemur
     direction -0.34202 -0.939693 0   
     length 6.55353   
     axis 0 0 -20   XYZ
    dof rx ry rz
    limits (-160.0 20.0)
           (-70.0 70.0)
           (-70.0 60.0)
  end
  begin
     id 8 
     name rtibia
     direction -0.34202 -0.939693 0   
     length 6.8736   
     axis 0 0 -20   XYZ
    dof rx
    limits (-10.0 170.0)
 end
 begin
     id 9 
     name rfoot
     direction -0.0679995 -0.186827 0.980037   
     length 2.1218  
     axis -90 -7.62852e-016 -20   XYZ
    dof rx rz
    limits (-45.0 90.0)
           (-20.0 70.0)
  end
  begin
     id 10 
     name rtoes
     direction -1.53589e-011 -4.21772e-011 1   
     length 1.06864   
     axis -90 -7.62852e-016 -20   XYZ
    dof rx
    limits (-90.0 20.0)
  end
  begin
     id 11 
     name lowerback
     direction -0.0416607 0.996347 -0.0745409   
     length 2.12205   
     axis 0 0 0   XYZ
    dof rx ry rz
    limits (-20.0 45.0)
           (-30.0 30.0)
           (-30.0 30.0)
  end
  begin
     id 12 
     name upperback
     direction -0.000153993 0.999276 -0.0380568   
     length 2.12759   
     axis 0 0 0   XYZ
    dof rx ry rz
    limits (-20.0 45.0)
           (-30.0 30.0)
           (-30.0 30.0)
  end
  begin
     id 13 
     name thorax
     direction 0.0187671 0.999821 -0.00241421   
     length 2.13704   
     axis 0 0 0   XYZ
    dof rx ry rz
    limits (-20.0 45.0)
           (-30.0 30.0)
           (-30.0 30.0)
  end
  begin
     id 14 
     name lowerneck
     direction 0.0268157 0.964865 0.261374   
     length 1.65253   
     axis 0 0 0   XYZ
    dof rx ry rz
    limits (-20.0 45.0)
           (-30.0 30.0)
           (-30.0 30.0)
  end
  begin
     id 15 
     name upperneck
     direction 0.00263774 0.939908 -0.341418   
     length 1.72375   
     axis 0 0 0   XYZ
    dof rx ry rz
    limits (-20.0 45.0)
           (-30.0 30.0)
           (-30.0 30.0)
  end
  begin
     id 16
     name head
     direction -0.00526001 0.989001 -0.147818  
     length 1.74878  
     axis 0 0 0   XYZ
    dof rx ry rz
    limits (-20.0 45.0)
           (-30.0 30.0)
           (-30.0 30.0)
  end
  begin
     id 17 
     name lclavicle
     direction 0.881214 0.461162 -0.103884  
     length 3.25108  
     axis 0 0 0   XYZ
    dof ry rz
    limits (-20.0 10.0)
           (0.0 20.0)
  end
  begin
     id 18 
     name lhumerus
     direction 1 -4.4899e-011 3.38092e-027   
     length 4.87408   
     axis 180 -30 -90   XYZ
    dof rx ry rz
    limits (-60.0 90.0)
           (-90.0 90.0)
           (-90.0 90.0)
  end
  begin
     id 19
     name lradius
     direction 1 -4.48931e-011 9.96288e-027   
     length 2.76729   
     axis 180 -30 -90   XYZ
    dof rx
    limits (-10.0 170.0)
  end
  begin
     id 20
     name lwrist
     direction 1 -4.4896e-011 1.50617e-026   
     length 1.38364   
     axis -9.31234e-015 90 90   XYZ
    dof ry
    limits (-180.0 0.0)
 end
  begin
     id 21 
     name lhand
     direction 1 -4.49038e-011 3.01286e-026   
     length 0.98922   
     axis -1.92217e-014 90 90   XYZ
    dof rx rz
    limits (-90.0 90.0)
           (-45.0 45.0)
  end
  begin
     id 22 
     name lfingers
     direction 1 -4.49051e-011 6.02588e-026   
     length 0.797535   
     axis -3.84436e-014 90 90   XYZ
    dof rx
    limits (0.0 90.0)
  end
  begin
     id 23
     name lthumb
     direction 0.707107 -6.34901e-011 0.707107   
     length 1.14511   
     axis -90 45 2.19363e-014   XYZ
    dof rx rz
    limits (-45.0 45.0)
           (-45.0 45.0)
  end
  begin
     id 24 
     name rclavicle
     direction -0.893894 0.441652 -0.0767889   
     length 3.29361  
     axis 0 0 0   XYZ 
    dof ry rz
    limits (-10.0 20.0)
           (-20.0 0.0)
  end
  begin
     id 25 
     name rhumerus
     direction -1 -4.48945e-011 8.0491e-028  
     length 4.71404   
     axis 180 30 90   XYZ
    dof rx ry rz
    limits (-90.0 60.0)
           (-90.0 90.0)
           (-90.0 90.0)
  end
  begin
     id 26 
     name rradius
     direction -1 -4.48986e-011 9.27795e-027   
     length 2.83468   
     axis 180 30 90   XYZ
    dof rx
    limits (-10.0 170.0)
  end
  begin
     id 27 
     name rwrist
     direction -1 -4.49029e-011 1.5064e-026   
     length 1.41734   
     axis -9.31234e-015 -90 -90   XYZ
    dof ry
    limits (-180.0 0.0)
  end
  begin
     id 28
     name rhand
     direction -1 -4.48857e-011 3.01165e-026   
     length 0.868195   
     axis -1.92217e-014 -90 -90   XYZ
    dof rx rz
    limits (-90.0 90.0)
           (-45.0 45.0)
  end
  begin
     id 29
     name rfingers
     direction -1 -4.49048e-011 6.02585e-026   
     length 0.699961   
     axis -3.84436e-014 -90 -90   XYZ
    dof rx
    limits (0.0 90.0)
  end
  begin
     id 30
     name rthumb
     direction -0.707107 -6.34854e-011 0.707107   
     length 1.00501   
     axis -90 -45 -2.19363e-014   XYZ
    dof rx rz
    limits (-45.0 45.0)
           (-45.0 45.0)
  end
:hierarchy
  begin
    root lhipjoint rhipjoint lowerback
    lhipjoint lfemur
    lfemur ltibia
    ltibia lfoot
    lfoot ltoes
    rhipjoint rfemur
    rfemur rtibia
    rtibia rfoot
    rfoot rtoes
    lowerback upperback
    upperback thorax
    thorax lowerneck lclavicle rclavicle
    lowerneck upperneck
    upperneck head
    lclavicle lhumerus
    lhumerus lradius
    lradius lwrist
    lwrist lhand lthumb
    lhand lfingers
    rclavicle rhumerus
    rhumerus rradius
    rradius rwrist
    rwrist rhand rthumb
    rhand rfingers
  end

#!OML:ASF H:\ManfredObstacles\Project 1\Capture day 2\Session 1\male.ASF
:FULLY-SPECIFIED
:DEGREES
48
root 1.54344 15.5379 24.0911 -176.115 -1.21086 183.85
lowerback 0.1261 4.6599 -0.105517
upperback 2.73837 6.15563 -2.00678
thorax 2.95521 3.04892 -1.84439
lowerneck -28.6271 0.15259 1.17241
upperneck 42.0701 -5.21266 2.20261
head 22.4213 -2.35943 -0.825223
rclavicle -3.93594e-014 2.70347e-014
rhumerus -31.5693 11.8229 -94.7455
rradius 73.7426
rwrist 15.97
rhand -6.28752 -4.63881
rfingers 7.12502
rthumb 19.5559 -33.6753
lclavicle -3.93594e-014 2.70347e-014
lhumerus -50.0469 -16.0565 85.4015
lradius 73.7435
lwrist -19.542
lhand -16.6907 12.451
lfingers 7.12502
lthumb 9.5338 42.2154
rfemur 3.61505 -2.11613 31.4246
rtibia 32.6932
rfoot -2.91996 -11.8339
rtoes -31.1588
lfemur -39.4511 4.41629 -21.3986
ltibia 32.0843
lfoot 19.9686 9.39183
ltoes -1.24659
49
root 1.54227 15.4878 23.9274 -176.244 -1.68598 183.857
lowerback 0.511458 4.55783 -0.132445
upperback 2.833 6.00529 -2.05021
thorax 2.8334 2.96975 -1.90691
lowerneck -28.6115 0.128126 1.23853
upperneck 41.9121 -5.21725 2.19455
head 22.2939 -2.34048 -0.83329
rclavicle 3.37934e-014 2.3059e-014
rhumerus -31.236 11.8014 -94.791
rradius 73.1865
rwrist 16.3527
rhand -6.1162 -4.75324
rfingers 7.12502
rthumb 19.7207 -33.7729
lclavicle 3.37934e-014 2.3059e-014
lhumerus -49.6954 -15.9884 85.4894
lradius 73.5164
lwrist -19.6468
lhand -16.7351 12.5873
lfingers 7.12502
lthumb 9.49097 42.3536
rfemur 2.75614 -3.1248 31.2103
rtibia 35.5377
rfoot -2.34355 -11.238
rtoes -31.6491
lfemur -39.1008 4.49438 -21.8548
ltibia 32.8988
lfoot 17.9283 10.3713
ltoes 0.106437
50
root 1.54136 15.44 23.7709 -176.384 -2.22392 183.818
lowerback 0.961327 4.42609 -0.194024
upperback 2.97164 5.81078 -2.09691
thorax 2.71606 2.86601 -1.95662
lowerneck -28.6354 0.100831 1.31378
upperneck 41.6903 -5.19438 2.17162
head 22.1303 -2.30648 -0.84056
rclavicle -2.60408e-014 -1.90833e-014
rhumerus -30.8566 11.7425 -94.8476
rradius 72.5771
rwrist 16.5832
rhand -6.04797 -4.88405
rfingers 7.12502
rthumb 19.7862 -33.897
lclavicle -2.60408e-014 -1.90833e-014
lhumerus -49.1997 -15.9203 85.6064
lradius 73.2141
lwrist -19.8112
lhand -16.7955 12.7123
lfingers 7.12502
lthumb 9.43269 42.4812
rfemur 1.7052 -4.19496 30.9256
rtibia 38.6379
rfoot -1.48957 -10.6228
rtoes -31.8915
lfemur -38.7562 4.32986 -22.2326
ltibia 33.7029
lfoot 16.166 11.5347
ltoes 1.66712
51
root 1.54096 15.3959 23.6226 -176.517 -2.79851 183.7
lowerback 1.45052 4.28183 -0.323481
upperback 3.14345 5.59453 -2.15771
thorax 2.60516 2.74797 -1.98339
lowerneck -28.6853 0.0632972 1.39292
upperneck 41.4151 -5.15873 2.13172
head 21.9356 -2.26543 -0.851642
rclavicle -7.89175e-014 -7.15625e-015
rhumerus -30.4454 11.5958 -94.8921
rradius 71.9127
rwrist 16.8546
rhand -6.01108 -4.98695
rfingers 7.12502
rthumb 19.8217 -33.9962
lclavicle -7.89175e-014 -7.15625e-015
lhumerus -48.5607 -15.8857 85.7655
lradius 72.8055
lwrist -20.0398
lhand -16.869 12.806
lfingers 7.12502
lthumb 9.36174 42.5781
rfemur 0.444632 -5.26379 30.5448
rtibia 41.9855
rfoot -0.386089 -10.0163
rtoes -31.7054
lfemur -38.4315 4.02773 -22.6069
ltibia 34.4605
lfoot 14.6429 12.6526
ltoes 3.15178
52
root 1.54171 15.3565 23.4834 -176.623 -3.40027 183.482
lowerback 1.94114 4.1162 -0.583453
upperback 3.38557 5.34265 -2.19695
thorax 2.55117 2.6058 -1.9113
lowerneck -28.8379 0.0128938 1.38552
upperneck 41.1151 -5.07468 2.08764
head 21.7578 -2.21485 -0.836297
rclavicle -8.0309e-014 7.95139e-016
rhumerus -29.929 11.4631 -94.8564
rradius 71.1816
rwrist 17.1391
rhand -5.96786 -5.08498
rfingers 7.12502
rthumb 19.8633 -34.0899
lclavicle -8.0309e-014 7.95139e-016
lhumerus -47.7125 -15.8046 85.994
lradius 72.2675
lwrist -20.3255
lhand -16.9822 12.8832
lfingers 7.12502
lthumb 9.25252 42.6601
rfemur -1.03681 -6.30061 30.0586
rtibia 45.5498
rfoot 0.941272 -9.44473
rtoes -30.9946
lfemur -38.142 3.66816 -23.0266
ltibia 35.1508
lfoot 13.3064 13.5444
ltoes 4.45063
53
root 1.54427 15.3207 23.3536 -176.695 -4.00167 183.157
lowerback 2.46746 3.97212 -0.932104
upperback 3.63927 5.11056 -2.27322
thorax 2.48744 2.46894 -1.82756
lowerneck -28.9913 -0.0691912 1.30958
upperneck 40.8196 -5.04021 2.10483
head 21.5926 -2.1853 -0.790551
rclavicle -1.37161e-014 6.67916e-014
rhumerus -29.3888 11.2351 -94.8153
rradius 70.3675
rwrist 17.4571
rhand -5.98682 -5.19206
rfingers 7.12502
rthumb 19.845 -34.1989
lclavicle -1.37161e-014 6.67916e-014
lhumerus -46.7449 -15.8508 86.2482
lradius 71.61
lwrist -20.6486
lhand -17.089 12.8937
lfingers 7.12502
lthumb 9.14944 42.6752
rfemur -2.72938 -7.25755 29.4765
rtibia 49.2803
rfoot 2.44857 -8.93104
rtoes -29.7666
lfemur -37.8782 3.32764 -23.5205
ltibia 35.7723
lfoot 12.0846 14.2411
ltoes 5.50204
54
root 1.54919 15.2873 23.2337 -176.723 -4.59572 182.751
lowerback 3.00389 3.84288 -1.37227
upperback 3.91638 4.88845 -2.35056
thorax 2.43731 2.33178 -1.69158
lowerneck -29.1954 -0.178226 1.14022
upperneck 40.5602 -5.0258 2.15807
head 21.4751 -2.1722 -0.717293
rclavicle -2.80286e-014 3.26007e-014
rhumerus -28.8136 11.0031 -94.734
rradius 69.4812
rwrist 17.7615
rhand -6.00985 -5.3173
rfingers 7.12502
rthumb 19.8229 -34.3264
lclavicle -2.80286e-014 3.26007e-014
lhumerus -45.6493 -15.9792 86.5482
lradius 70.8388
lwrist -21.0183
lhand -17.1891 12.8352
lfingers 7.12502
lthumb 9.05289 42.6209
rfemur -4.61042 -8.12134 28.8357
rtibia 53.1005
rfoot 4.02441 -8.4547
rtoes -28.0278
lfemur -37.6564 3.06099 -24.0867
ltibia 36.336
lfoot 10.892 14.7699
ltoes 6.41401
55
root 1.55653 15.2566 23.1226 -176.705 -5.168 182.313
lowerback 3.55924 3.73158 -1.83147
upperback 4.20485 4.68064 -2.43288
thorax 2.39078 2.19866 -1.5486
lowerneck -29.3916 -0.303873 0.905294
upperneck 40.2984 -5.01765 2.24407
head 21.3591 -2.16736 -0.617667
rclavicle -1.15295e-014 1.51076e-014
rhumerus -28.2053 10.7759 -94.6418
rradius 68.5318
rwrist 18.022
rhand -6.09305 -5.47357
rfingers 7.12502
rthumb 19.7429 -34.4909
lclavicle -1.15295e-014 1.51076e-014
lhumerus -44.4375 -16.2203 86.8619
lradius 69.9702
lwrist -21.4092
lhand -17.2614 12.7618
lfingers 7.12502
lthumb 8.98311 42.5505
rfemur -6.65229 -8.86843 28.1996
rtibia 56.9214
rfoot 5.4977 -8.02946
rtoes -25.9376
lfemur -37.4925 2.89799 -24.6843
ltibia 36.8695
lfoot 9.71651 15.1544
ltoes 7.18846
56
root 1.56599 15.2286 23.0193 -176.655 -5.70808 181.899
lowerback 4.14368 3.65792 -2.23249
upperback 4.46596 4.51651 -2.52685
thorax 2.30898 2.08843 -1.45079
lowerneck -29.5015 -0.43565 0.734038
upperneck 40.0031 -5.02721 2.2834
head 21.192 -2.16786 -0.556838
rclavicle 3.55825e-014 6.52014e-014
rhumerus -27.6504 10.4716 -94.5607
rradius 67.5606
rwrist 18.3109
rhand -6.17394 -5.6364
rfingers 7.12502
rthumb 19.6651 -34.6617
lclavicle 3.55825e-014 6.52014e-014
lhumerus -43.193 -16.6633 87.191
lradius 69.0239
lwrist -21.808
lhand -17.2968 12.6501
lfingers 7.12502
lthumb 8.94896 42.4404
rfemur -8.80398 -9.4903 27.632
rtibia 60.6441
rfoot 6.70422 -7.74763
rtoes -23.8078
lfemur -37.3914 2.82257 -25.2519
ltibia 37.4002
lfoot 8.57051 15.4656
ltoes 7.86216
57
root 1.57693 15.2028 22.9236 -176.582 -6.21668 181.58
lowerback 4.72363 3.60105 -2.52792
upperback 4.74126 4.37266 -2.58268
thorax 2.25182 1.98985 -1.36989
lowerneck -29.5934 -0.554699 0.623749
upperneck 39.6667 -4.99386 2.23532
head 20.9863 -2.15406 -0.539002
rclavicle 1.35174e-014 -2.54444e-014
rhumerus -27.0763 10.1842 -94.452
rradius 66.5843
rwrist 18.6455
rhand -6.25441 -5.77203
rfingers 7.12502
rthumb 19.5878 -34.8053
lclavicle 1.35174e-014 -2.54444e-014
lhumerus -41.8336 -17.2144 87.5382
lradius 67.9995
lwrist -22.2171
lhand -17.2637 12.5205
lfingers 7.12502
lthumb 8.9809 42.3093
rfemur -11.0246 -9.96361 27.2141
rtibia 64.1803
rfoot 7.46187 -7.74396
rtoes -21.8724
lfemur -37.3651 2.81313 -25.7122
ltibia 37.9555
lfoot 7.46221 15.7406
ltoes 8.51136
58
root 1.58805 15.18 22.8342 -176.506 -6.69234 181.386
lowerback 5.30915 3.55621 -2.67327
upperback 5.01994 4.24684 -2.60035
thorax 2.20505 1.90406 -1.33175
lowerneck -29.6715 -0.646861 0.617163
upperneck 39.3058 -4.91585 2.07622
head 20.7534 -2.12336 -0.583188
rclavicle -1.47101e-014 -1.98785e-014
rhumerus -26.5031 9.91267 -94.3326
rradius 65.6333
rwrist 19.0457
rhand -6.33793 -5.88681
rfingers 7.12502
rthumb 19.5075 -34.9282
lclavicle -1.47101e-014 -1.98785e-014
lhumerus -40.4136 -17.8654 87.9036
lradius 66.9334
lwrist -22.6423
lhand -17.1648 12.4231
lfingers 7.12502
lthumb 9.0763 42.2078
rfemur -13.2579 -10.2838 26.9684
rtibia 67.4535
rfoot 7.7218 -8.11486
rtoes -20.2909
lfemur -37.3973 2.81291 -26.0205
ltibia 38.5445
lfoot 6.45099 15.9987
ltoes 9.08875
